<svg version="1.1" id="Layer_1" xmlns="http://www.w3.org/2000/svg" xmlns:xlink="http://www.w3.org/1999/xlink" x="0px" y="0px"
	 width="100%" viewBox="0 0 496 496" enable-background="new 0 0 496 496" xml:space="preserve">
<path fill="#000000" opacity="1.000000" stroke="none" 
	d="
M308.282288,197.130951 
	C317.911743,191.500427 328.047424,190.539322 338.482788,191.713745 
	C343.673950,192.297958 348.050873,194.807281 350.917450,199.228592 
	C352.700775,201.979156 354.867218,202.826965 357.997101,202.712769 
	C363.321289,202.518509 368.661011,202.577744 373.988861,202.724442 
	C376.961700,202.806290 378.657379,201.993423 378.941040,198.685287 
	C379.376678,193.604614 381.385345,189.170990 384.624847,185.105774 
	C387.474426,181.529846 388.602509,177.104202 388.686127,172.479599 
	C388.713226,170.981888 388.661377,169.453430 388.941498,167.995895 
	C389.471375,165.238953 391.000275,163.436554 394.098602,163.722549 
	C396.961090,163.986786 398.148499,165.917831 398.220032,168.493622 
	C398.426788,175.936523 397.332794,183.110870 393.133484,189.490860 
	C391.293457,192.286423 389.667267,195.133545 388.787384,198.420410 
	C387.944550,201.568817 389.020782,202.728012 392.164062,202.702393 
	C400.827362,202.631729 409.492584,202.608734 418.154968,202.724457 
	C420.665558,202.757996 422.108795,201.604416 423.448547,199.701889 
	C428.502502,192.524689 435.711792,190.670410 444.050049,191.325851 
	C450.523682,191.834732 457.003448,192.028931 463.064972,194.790268 
	C475.755249,200.571350 482.474823,210.311386 483.399261,224.301376 
	C484.450714,240.213013 485.968109,256.093597 487.058533,272.003052 
	C487.478912,278.136383 487.689850,284.339661 487.273804,290.461975 
	C486.604828,300.305908 476.896698,310.946289 467.182251,312.056580 
	C455.383179,313.405060 444.209595,312.143982 438.397400,298.762787 
	C436.274933,293.876221 434.010651,289.051422 431.866577,284.174042 
	C430.814117,281.779877 429.433044,281.085876 426.761505,282.053131 
	C413.882721,286.716095 403.330017,282.790558 394.543701,272.881775 
	C391.131927,269.034210 383.206940,269.052826 380.142822,273.148712 
	C376.952515,277.413208 372.836182,280.407867 368.165863,282.727722 
	C361.611481,285.983429 355.079132,286.303101 348.653839,282.298187 
	C347.810791,281.772705 346.898224,281.352692 345.994568,280.934082 
	C345.711578,280.802979 345.352142,280.836792 344.501953,280.727570 
	C340.895325,286.293213 339.023438,292.881134 336.266357,299.025299 
	C333.166504,305.933228 328.133118,310.199432 320.782684,311.889862 
	C302.357819,316.127136 286.054321,302.119476 287.428436,283.260284 
	C288.890533,263.193665 290.035461,243.100449 291.786469,223.059708 
	C292.756958,211.952515 298.678741,203.456680 308.282288,197.130951 
M326.789215,227.937820 
	C326.641602,225.975632 326.905670,223.588348 324.041290,223.523560 
	C321.882080,223.474731 321.551758,225.318100 321.369141,227.043533 
	C321.057526,229.987717 322.354523,233.393021 320.524872,235.794174 
	C318.510956,238.437164 314.897430,236.760223 312.034729,237.301727 
	C310.791260,237.536942 309.755737,237.987595 309.554626,239.335480 
	C309.320831,240.902100 310.280975,241.949661 311.614014,242.330414 
	C312.858215,242.685745 314.263519,242.784286 315.551544,242.623810 
	C320.227905,242.041122 321.753326,244.145676 321.391510,248.609619 
	C321.205170,250.908524 320.621277,254.461258 324.185822,254.405487 
	C327.857208,254.348038 326.416321,250.725632 326.804932,248.492020 
	C326.860962,248.169724 326.842651,247.827240 326.812500,247.498322 
	C326.477600,243.842239 328.134460,242.275940 331.774536,242.648773 
	C332.923340,242.766434 334.097992,242.708832 335.255890,242.643860 
	C337.496124,242.518173 340.569763,243.077545 340.434235,239.665680 
	C340.311737,236.581787 337.361938,237.288040 335.329498,237.242432 
	C326.866516,237.052536 326.865814,237.083755 326.789215,227.937820 
M421.469025,250.010422 
	C421.656982,255.571045 423.756134,258.376190 428.075256,258.817657 
	C432.307373,259.250244 435.291840,257.387878 436.365448,253.383316 
	C437.439270,249.377899 435.678192,246.241623 431.950897,244.436615 
	C427.926392,242.487671 424.713959,244.068207 421.469025,250.010422 
M447.053467,254.376068 
	C450.627533,259.526428 456.524963,260.422089 459.831879,256.217621 
	C462.135712,253.288528 462.515503,250.053864 460.066406,247.046478 
	C457.967194,244.468781 455.258301,242.790329 451.757446,244.175461 
	C447.436188,245.885178 445.573883,249.023209 447.053467,254.376068 
M433.117737,232.874741 
	C433.917114,232.044754 434.888519,231.322128 435.485413,230.365768 
	C437.775574,226.696442 436.601288,222.148956 432.925751,220.019897 
	C429.132416,217.822601 424.206116,219.225281 422.207703,223.071655 
	C420.305511,226.732956 421.879303,231.321609 425.706482,233.200439 
	C427.933624,234.293793 430.194458,234.187622 433.117737,232.874741 
M454.321198,219.145813 
	C448.117126,219.864853 444.823029,224.289276 446.969635,229.139526 
	C448.473083,232.536545 451.094086,234.311966 454.903931,233.824051 
	C458.996948,233.299866 461.155945,230.503479 461.481750,226.775787 
	C461.855286,222.501526 459.193970,220.086029 454.321198,219.145813 
M402.064117,237.241211 
	C399.900452,237.264908 397.736298,237.267639 395.573334,237.319748 
	C394.148438,237.354080 392.753235,237.742691 392.655762,239.396500 
	C392.554382,241.116287 393.736420,242.307053 395.339722,242.476105 
	C397.811523,242.736694 400.322693,242.639221 402.817444,242.661743 
	C404.730408,242.679031 406.946198,242.443893 407.136963,240.233871 
	C407.373260,237.495621 404.935699,237.399216 402.064117,237.241211 
M378.743958,237.279190 
	C376.248962,237.276794 373.753693,237.252045 371.259033,237.279556 
	C369.491730,237.299042 367.663696,237.620102 367.745514,239.841156 
	C367.819031,241.836670 369.487396,242.550583 371.285095,242.609009 
	C373.777435,242.690018 376.275757,242.683701 378.768707,242.613831 
	C380.360626,242.569260 381.917480,241.962448 382.226227,240.298126 
	C382.564087,238.476685 381.149689,237.699493 378.743958,237.279190 
z"/>
<path fill="#000000" opacity="1.000000" stroke="none" 
	d="
M109.511467,226.641037 
	C113.533348,215.106857 117.424553,203.946045 121.359116,192.800537 
	C121.966278,191.080612 122.579567,189.311218 123.531921,187.776917 
	C124.963295,185.470886 127.148003,184.239319 129.916809,185.119995 
	C132.766983,186.026520 133.656769,188.348587 133.263214,191.074142 
	C132.981140,193.027527 132.375183,194.955566 131.729568,196.831543 
	C127.408562,209.387253 123.038086,221.925949 118.253891,235.708237 
	C126.444588,228.902939 132.755081,222.155319 138.501709,214.850357 
	C140.263641,212.610657 139.639328,210.122086 139.321793,207.657227 
	C138.663086,202.544067 137.879074,197.442825 137.389435,192.313522 
	C137.036728,188.618683 138.341507,185.448471 142.392548,184.912369 
	C146.683136,184.344543 148.707657,187.075394 149.342972,191.053192 
	C149.754776,193.631638 150.224213,196.200882 150.857025,199.871750 
	C153.849701,196.273193 156.241592,193.392212 158.639328,190.516098 
	C159.705383,189.237335 160.699570,187.884338 161.875198,186.714569 
	C163.657425,184.941208 165.759537,183.888855 168.100464,185.638397 
	C170.645706,187.540680 170.375717,190.030655 168.676788,192.237946 
	C164.716385,197.383408 160.590210,202.402023 156.497711,207.444885 
	C152.373169,212.527222 151.258453,225.321838 154.421967,230.914902 
	C155.496475,232.814621 156.922394,232.956177 158.604630,232.010422 
	C160.821899,230.763855 161.607117,228.680954 162.071686,226.256424 
	C164.262543,214.822510 164.632767,214.336029 173.997635,208.073944 
	C171.397369,193.846603 179.263458,183.833786 192.353699,184.708359 
	C198.423355,185.113876 203.808151,188.849594 204.979553,193.684708 
	C205.720474,196.742996 205.730942,199.807846 202.361801,201.474106 
	C198.791534,203.239807 196.690231,201.101807 195.099884,198.277466 
	C193.794891,195.959930 192.310806,193.856934 189.305008,194.694992 
	C186.234787,195.551025 184.673035,198.034592 184.545914,201.068222 
	C184.414932,204.193741 186.534607,205.749634 189.364914,206.588669 
	C194.711685,208.173767 196.515060,210.920242 195.058411,215.048309 
	C193.778091,218.676712 190.009094,220.210602 185.484909,218.397064 
	C181.666199,216.866318 178.541687,217.763504 175.942673,220.415527 
	C173.625519,222.779953 173.642517,226.020462 174.753296,228.888504 
	C176.192856,232.605423 179.655136,232.960510 183.132217,232.928726 
	C190.046814,232.865509 196.838959,230.939514 199.619400,224.552948 
	C203.289047,216.123901 209.836746,216.643127 216.458008,217.230347 
	C224.449356,217.939041 224.413330,218.331619 227.141068,210.733047 
	C227.759964,209.008987 228.486176,207.316635 228.991867,205.560394 
	C229.724777,203.015030 231.917603,200.409302 228.556229,197.980682 
	C225.009888,195.418411 221.422134,193.564407 217.058807,195.901016 
	C216.037033,196.448166 215.107147,197.176743 214.168655,197.867599 
	C211.771683,199.632065 209.426529,199.605820 207.552582,197.262161 
	C205.769363,195.031967 206.007095,192.720612 207.890991,190.465149 
	C213.150269,184.168594 223.586090,182.671112 231.687576,187.486862 
	C234.307419,189.044174 236.013306,189.422531 238.613861,187.295212 
	C242.019913,184.508972 246.249420,183.108826 250.783188,183.961487 
	C258.001007,185.318939 261.894592,192.022141 260.033905,199.611420 
	C258.192719,207.121292 251.030807,211.662720 244.225342,209.620865 
	C243.120575,209.289383 242.038742,208.881424 240.074326,208.211411 
	C238.156235,213.949432 235.615753,219.433517 234.659760,225.181137 
	C234.060211,228.785751 238.040329,230.729843 241.292221,231.533081 
	C246.107117,232.722366 250.201263,231.226776 252.869675,226.779312 
	C253.896500,225.067871 254.713364,223.222061 255.826813,221.573181 
	C257.118927,219.659683 259.111481,219.282806 261.149536,220.089020 
	C263.269073,220.927490 264.241486,222.660233 263.589325,224.925400 
	C259.011688,240.824829 244.179001,246.465088 232.581345,239.594040 
	C229.565613,237.807388 227.987976,238.019943 225.325134,240.119293 
	C217.842255,246.018646 208.991898,245.664658 201.589157,239.519043 
	C200.069702,238.257599 199.006592,238.046753 197.200577,238.881409 
	C187.643005,243.298355 178.044724,244.278122 168.574234,238.569214 
	C167.239807,237.764816 166.252625,238.082993 164.940536,238.831024 
	C152.196548,246.096466 144.487427,242.448502 141.326370,227.237915 
	C136.955078,231.303421 132.875504,235.263992 128.613785,239.017761 
	C123.646317,243.393204 122.035004,243.361053 117.016266,239.319244 
	C116.125427,240.000717 115.280258,240.816849 114.289749,241.375092 
	C110.387535,243.574387 106.842697,241.568466 106.700813,237.085556 
	C106.586502,233.473877 108.352539,230.337128 109.511467,226.641037 
M214.258804,234.604248 
	C216.183990,234.290802 217.535629,233.070969 218.747467,231.682907 
	C219.625381,230.677307 220.686142,229.443802 219.515045,228.199463 
	C217.946106,226.532364 215.814011,225.967667 213.573868,226.668747 
	C211.518402,227.312012 210.095734,228.778595 209.922852,230.956650 
	C209.729065,233.397705 211.157608,234.586029 214.258804,234.604248 
M249.641006,197.925217 
	C249.976227,196.504166 249.898041,194.989670 248.193466,194.866241 
	C246.386734,194.735397 245.162491,195.848160 245.104797,198.076447 
	C246.432678,199.093811 247.707657,200.071304 249.641006,197.925217 
z"/>
<path fill="#000000" opacity="1.000000" stroke="none" 
	d="
M87.962158,274.096771 
	C88.553680,272.728210 89.204994,271.382050 89.726822,269.987396 
	C92.628357,262.232880 98.564507,259.016266 106.715195,260.981262 
	C108.375465,261.381500 109.836517,261.880585 111.473022,260.878082 
	C113.430367,259.679016 115.560150,259.164062 117.440300,261.009247 
	C119.282616,262.817352 118.734329,265.089020 118.034904,267.118500 
	C115.269882,275.141571 112.325943,283.102814 109.539604,291.118713 
	C108.862587,293.066406 107.446724,295.051819 109.072464,297.331482 
	C112.412895,298.107330 113.819908,295.676605 115.193665,293.432465 
	C120.832008,284.221893 121.083061,283.884735 131.210831,286.152954 
	C134.553238,286.901520 135.807739,285.912567 136.650406,283.083832 
	C137.267578,281.012085 138.042465,278.987762 138.724518,276.934845 
	C139.451050,274.748108 140.684158,272.504547 138.165482,270.600494 
	C135.643188,268.693695 132.993774,267.476135 129.879639,269.232330 
	C127.246414,270.717316 124.143135,273.966217 121.989250,269.518677 
	C119.949944,265.307709 123.862900,263.280243 126.968300,261.679840 
	C131.443787,259.373291 136.112625,259.850769 140.401993,262.104950 
	C142.926697,263.431763 144.691864,263.411469 147.195862,261.914825 
	C156.086609,256.600861 163.070145,260.515472 163.472748,271.762115 
	C164.972473,268.528717 165.799194,265.831726 167.913345,263.982941 
	C171.690735,260.679626 175.985443,259.394379 180.867096,260.892975 
	C182.670761,261.446655 184.304657,261.953217 186.099014,260.835846 
	C188.089233,259.596558 190.178696,259.268829 192.016800,261.173096 
	C193.799042,263.019501 193.339676,265.135132 192.584045,267.247131 
	C189.613129,275.550781 186.540710,283.820587 183.752319,292.185059 
	C183.212463,293.804474 180.740204,296.622131 184.443207,297.387604 
	C187.081894,297.933075 188.364792,295.722870 188.851593,293.070557 
	C190.422668,284.510590 193.690964,276.464966 196.915955,268.450134 
	C199.567215,261.861115 205.796951,258.994904 212.363831,260.737671 
	C218.928284,262.479767 221.727051,269.726929 218.032715,275.486176 
	C216.891296,277.265564 215.375504,278.660706 213.090256,278.002594 
	C210.701660,277.314728 209.538116,275.582825 210.049698,273.043976 
	C210.318665,271.709137 210.894806,270.264313 209.148956,269.667786 
	C207.374847,269.061646 206.227371,270.354828 205.595505,271.710510 
	C202.421722,278.519989 200.346786,285.716248 198.662506,293.007233 
	C198.180695,295.092834 200.026321,296.276276 201.715302,297.085571 
	C207.097412,299.664581 213.627045,296.658325 214.983109,290.834167 
	C216.043427,286.280212 217.724670,282.214722 222.077896,279.935028 
	C223.980316,278.938751 223.900940,277.667236 223.685242,275.831024 
	C222.446686,265.287689 232.039551,257.607788 242.072037,261.057007 
	C245.623825,262.278137 248.069504,264.563629 248.463165,268.567932 
	C248.675934,270.732330 248.295273,272.605255 246.141418,273.599792 
	C243.845215,274.660095 242.317932,273.360291 241.071304,271.654175 
	C240.291580,270.587097 239.821686,269.223541 238.486557,268.710907 
	C236.236664,267.846985 234.605377,268.828552 233.418091,270.705231 
	C232.062958,272.847229 232.180267,274.897644 234.352112,276.374695 
	C235.418427,277.099854 236.814911,277.326355 238.036560,277.839081 
	C240.319946,278.797516 241.463852,280.591217 240.992035,282.990662 
	C240.500641,285.489655 238.924622,287.251984 236.178543,287.204926 
	C234.545166,287.176941 232.929794,286.524689 231.288986,286.416779 
	C227.632828,286.176270 225.014694,287.770233 224.485916,291.505463 
	C223.924057,295.474426 226.345734,297.349426 230.003204,297.682007 
	C236.556000,298.277832 241.717896,295.877869 245.211655,290.191223 
	C245.558792,289.626251 245.786346,288.988953 246.115555,288.411560 
	C247.310196,286.316345 248.961731,284.920471 251.405121,286.206970 
	C253.648087,287.387909 253.234848,289.376953 252.532547,291.441162 
	C248.666824,302.803162 232.855286,309.076569 221.726913,303.315735 
	C218.885147,301.844635 216.839645,301.662201 213.968704,303.153381 
	C208.224503,306.136902 202.084747,306.382385 196.160065,303.591949 
	C193.752945,302.458191 191.902405,302.606537 189.638504,303.814819 
	C185.755966,305.886993 181.593475,306.214111 177.727188,303.852234 
	C175.686584,302.605621 174.135010,302.781525 172.249298,303.926208 
	C170.524078,304.973480 168.392014,305.874176 166.526886,305.227264 
	C160.657364,303.191437 154.925201,304.407349 149.127838,305.300690 
	C145.048920,305.929260 141.857819,301.555298 138.510986,302.292084 
	C135.263474,303.007050 132.504181,307.011536 128.726562,306.488098 
	C120.777367,305.386566 112.849037,304.796539 104.839516,304.413483 
	C101.897743,304.272736 99.326820,303.082886 96.097946,304.423706 
	C87.744934,307.892395 80.382034,301.758331 81.844955,292.876740 
	C82.087334,291.405243 82.581551,289.975189 83.120941,287.784912 
	C85.391197,282.926483 86.763481,278.542999 87.962158,274.096771 
M160.792664,279.700073 
	C161.300232,278.345642 161.807816,276.991211 162.315384,275.636780 
	C158.352615,280.580078 153.510284,281.281891 147.605026,278.895691 
	C146.438919,282.237000 145.546631,285.433319 144.221344,288.438721 
	C142.316650,292.757996 144.161179,295.137695 148.026154,296.503693 
	C152.138962,297.957336 155.065033,296.423370 156.554398,292.210724 
	C157.941437,288.287506 159.258408,284.339569 160.792664,279.700073 
M101.862564,285.464539 
	C103.123238,282.032593 104.383957,278.600708 105.644577,275.168732 
	C106.497154,272.847626 107.068245,270.526733 104.114944,269.275940 
	C101.268517,268.070404 99.513237,269.826874 98.637329,272.107239 
	C96.136154,278.618835 93.850456,285.215668 91.607056,291.822083 
	C91.074219,293.391205 90.891350,295.286713 92.768211,296.228058 
	C94.732155,297.213043 96.329025,296.111969 97.603287,294.699585 
	C99.781403,292.285309 100.576790,289.171295 101.862564,285.464539 
M167.711426,287.129486 
	C167.265533,288.555054 166.681015,289.954803 166.409348,291.412811 
	C166.079529,293.182831 165.543015,295.294525 167.717499,296.242981 
	C169.704880,297.109802 171.300720,295.815186 172.415787,294.320038 
	C173.393250,293.009399 174.168961,291.488800 174.750885,289.953705 
	C176.518219,285.291626 178.174423,280.586700 179.821167,275.880005 
	C180.641464,273.535400 181.949326,270.769836 178.638260,269.482544 
	C175.433411,268.236542 173.636948,270.565918 172.622955,273.211700 
	C170.958435,277.554993 169.531052,281.989136 167.711426,287.129486 
M131.135345,296.677002 
	C132.123505,294.480591 130.898209,293.609955 129.002762,293.309174 
	C127.262230,293.033020 125.690140,293.475098 124.770370,295.128479 
	C124.164818,296.217072 124.110336,297.499756 125.124229,298.295776 
	C127.309883,300.011627 129.086594,298.728180 131.135345,296.677002 
z"/>
<path fill="#000000" opacity="1.000000" stroke="none" 
	d="
M113.520447,205.371735 
	C112.020721,209.490555 110.816315,213.307495 109.252869,216.971207 
	C104.977242,226.990555 96.814896,230.609283 86.518158,227.237015 
	C85.755692,226.987305 84.963974,226.826889 84.127884,226.609924 
	C81.863113,229.847214 81.357384,233.545868 80.014412,236.901825 
	C78.231110,241.358093 75.000473,243.418564 71.698059,241.935654 
	C67.693573,240.137482 68.041786,236.818176 69.216019,233.435089 
	C74.394760,218.514694 79.527298,203.577362 84.850677,188.708496 
	C87.068977,182.512512 89.798653,181.615128 95.873878,184.612045 
	C96.832077,185.084717 97.661003,185.162582 98.694496,185.099213 
	C113.478775,184.192688 118.599640,191.030716 113.520447,205.371735 
M96.596886,195.089188 
	C91.535591,198.813248 91.902908,205.083908 89.614845,210.105865 
	C88.355949,212.868927 88.160683,215.919113 91.642708,217.242798 
	C95.059128,218.541550 97.509636,216.671249 98.743370,213.558334 
	C100.330582,209.553558 101.749878,205.463531 102.932869,201.322067 
	C104.386467,196.233246 102.739540,194.465027 96.596886,195.089188 
z"/>
<path fill="#000000" opacity="1.000000" stroke="none" 
	d="
M88.024513,273.707916 
	C86.763481,278.542999 85.391197,282.926483 83.189018,287.351379 
	C78.219650,294.141693 72.016960,296.430023 64.420364,293.297028 
	C61.967361,295.645508 61.825291,298.641357 60.686893,301.167786 
	C59.397648,304.028992 57.546772,306.241241 54.181530,304.835846 
	C51.016182,303.513947 51.397724,300.693481 52.342125,297.989471 
	C56.289520,286.687286 60.149467,275.353210 64.237289,264.101959 
	C66.229080,258.619781 67.796631,258.047791 73.206787,260.111053 
	C74.355423,260.549103 75.445511,260.544373 76.612762,260.534271 
	C86.194603,260.451111 89.216530,263.834167 88.024513,273.707916 
M76.405762,279.895630 
	C77.118462,277.695648 77.969696,275.528412 78.499748,273.285248 
	C78.918831,271.511719 79.133377,269.424744 76.948418,268.589996 
	C74.595787,267.691223 72.549232,268.656464 71.624664,270.908173 
	C70.184914,274.414551 69.062309,278.054108 67.877068,281.660797 
	C67.335114,283.309998 67.988686,284.648682 69.507217,285.366547 
	C70.942932,286.045319 72.404816,285.837006 73.711029,284.847076 
	C75.124435,283.775940 75.575317,282.170380 76.405762,279.895630 
z"/>
</svg>